<svg width="36" height="36" viewBox="0 0 36 36" fill="none" xmlns="http://www.w3.org/2000/svg">
<g clip-path="url(#clip0_27_64)">
<path d="M18 36C18 36 31.5 23.2065 31.5 13.5C31.5 9.91958 30.0777 6.4858 27.5459 3.95406C25.0142 1.42232 21.5804 0 18 0C14.4196 0 10.9858 1.42232 8.45406 3.95406C5.92232 6.4858 4.5 9.91958 4.5 13.5C4.5 23.2065 18 36 18 36ZM18 20.25C16.2098 20.25 14.4929 19.5388 13.227 18.273C11.9612 17.0071 11.25 15.2902 11.25 13.5C11.25 11.7098 11.9612 9.9929 13.227 8.72703C14.4929 7.46116 16.2098 6.75 18 6.75C19.7902 6.75 21.5071 7.46116 22.773 8.72703C24.0388 9.9929 24.75 11.7098 24.75 13.5C24.75 15.2902 24.0388 17.0071 22.773 18.273C21.5071 19.5388 19.7902 20.25 18 20.25Z" fill="#C69460"/>
</g>
<defs>
<clipPath id="clip0_27_64">
<rect width="36" height="36" fill="white"/>
</clipPath>
</defs>
</svg>
